<?xml version="1.0" encoding="UTF-8" standalone="no"?>
<!-- Created with Inkscape (http://www.inkscape.org/) -->

<svg
   xmlns:dc="http://purl.org/dc/elements/1.1/"
   xmlns:cc="http://creativecommons.org/ns#"
   xmlns:rdf="http://www.w3.org/1999/02/22-rdf-syntax-ns#"
   xmlns:svg="http://www.w3.org/2000/svg"
   xmlns="http://www.w3.org/2000/svg"
   xmlns:sodipodi="http://sodipodi.sourceforge.net/DTD/sodipodi-0.dtd"
   xmlns:inkscape="http://www.inkscape.org/namespaces/inkscape"
   width="210mm"
   height="297mm"
   viewBox="0 0 744.09448819 1052.3622047"
   id="svg2"
   version="1.1"
   inkscape:version="0.91 r13725"
   sodipodi:docname="imitor_logo.svg">
  <defs
     id="defs4">
    <clipPath
       clipPathUnits="userSpaceOnUse"
       id="clipPath4251">
      <path
         style="opacity:0.87300002;fill:#000000"
         d="m 249.54385,386.67667 c -9.12536,-1.06024 -12.70053,-4.81447 -13.81038,-14.50214 -0.6987,-6.09841 -0.6987,-116.31883 0,-122.41723 1.1404,-9.95435 4.57995,-13.39959 14.51354,-14.53757 6.14673,-0.70418 116.3247,-0.70418 122.47143,0 9.93361,1.13798 13.37315,4.58322 14.51355,14.53757 0.70127,6.12108 0.6985,116.32028 -0.002,122.44433 -1.13798,9.93361 -4.58322,13.37315 -14.53757,14.51357 -5.50918,0.63115 -117.68566,0.59607 -123.1475,-0.0384 z m 28.78475,-30.67526 c 0.75521,-0.40107 7.89204,-7.26474 15.8596,-15.2526 l 14.4865,-14.52339 -6.09072,-6.10663 -6.09071,-6.10661 -14.63019,14.62162 c -15.62463,15.6155 -16.61013,16.89776 -15.97848,20.79018 0.41081,2.53147 2.42891,5.43052 4.48581,6.44397 2.10851,1.03885 6.12637,1.10625 7.95819,0.13342 z m 67.94217,-0.24142 1.48152,-0.59297 -6.36763,-6.46429 c -3.94507,-4.00495 -6.49957,-7.01309 -6.7144,-7.90683 -0.50881,-2.1167 1.0533,-4.96197 3.33723,-6.07856 2.98699,-1.46028 4.11256,-0.84285 11.21205,6.15052 l 6.46429,6.36762 0.64928,-1.48151 c 0.3778,-0.86211 0.64837,-3.50129 0.64714,-6.31224 -9.5e-4,-4.23455 -0.16755,-5.14452 -1.34234,-7.37321 -1.70379,-3.23228 -4.55519,-6.08648 -7.79768,-7.80523 -2.31779,-1.22859 -3.04785,-1.34724 -8.26062,-1.34252 l -5.71814,0.005 -17.28654,-17.29406 -17.28654,-17.29404 0.56408,-2.03399 c 0.73493,-2.64998 0.23754,-7.81347 -1.0283,-10.67512 -1.40473,-3.17564 -5.27658,-7.12032 -8.57079,-8.73203 -2.27898,-1.11501 -3.51281,-1.37025 -6.67378,-1.38062 -3.57115,-0.0125 -7.69161,0.84938 -7.69161,1.60744 0,0.17485 2.86028,3.20867 6.3562,6.74182 6.13782,6.20324 6.35621,6.49845 6.35621,8.5922 0,4.0514 -4.28805,6.8387 -7.78802,5.06234 -0.61087,-0.31007 -3.80576,-3.22757 -7.09973,-6.48334 -6.66988,-6.59254 -6.53868,-6.56931 -7.453,-1.31905 -2.03317,11.6754 8.77712,22.07317 20.36513,19.58799 l 2.69779,-0.57856 17.44087,17.43356 c 12.37101,12.3658 17.34291,17.65524 17.10394,18.19627 -0.18532,0.41953 -0.44046,2.27968 -0.56698,4.13375 -0.53202,7.79503 3.94315,14.72975 11.16889,17.30735 2.98416,1.06455 9.09609,1.04494 11.80148,-0.038 z m -15.07969,-58.1421 c 6.92917,-6.93785 7.50376,-7.38572 13.50747,-10.52889 l 6.27044,-3.28279 3.26634,-6.23871 3.26632,-6.23872 -3.05098,-3.04807 -3.05097,-3.04804 -6.10196,3.18017 -6.10196,3.18016 -3.05099,5.82995 c -2.86483,5.47425 -3.52361,6.31154 -10.79836,13.72431 l -7.74738,7.89442 2.91114,2.91114 c 1.60114,1.60112 3.031,2.91114 3.17751,2.91114 0.14648,0 3.52301,-3.26073 7.50338,-7.24607 z"
         id="path4253"
         inkscape:connector-curvature="0" />
    </clipPath>
    <clipPath
       clipPathUnits="userSpaceOnUse"
       id="clipPath4294">
      <g
         id="g4296">
        <circle
           clip-path="url(#clipPath4251)"
           inkscape:export-ydpi="360"
           inkscape:export-xdpi="360"
           r="67.85714"
           cy="311.64792"
           cx="310.71429"
           id="circle4298"
           style="opacity:1;fill:#ee6f00;fill-opacity:1;fill-rule:nonzero;stroke:none;stroke-width:3.48799992;stroke-miterlimit:4;stroke-dasharray:none;stroke-dashoffset:0;stroke-opacity:1" />
        <path
           inkscape:connector-curvature="0"
           id="path4300"
           d="m 336.33605,356.15929 c -4.66178,-0.88936 -8.94681,-4.27663 -11.2048,-8.85727 -1.42001,-2.88069 -1.8316,-5.09728 -1.64148,-8.84003 0.0847,-1.66675 0.21865,-3.37241 0.29773,-3.79036 0.1298,-0.68606 -0.10877,-1.04188 -2.45521,-3.6618 -1.42943,-1.59605 -9.19863,-9.53397 -17.26487,-17.63984 l -14.6659,-14.73793 -2.13715,0.44232 c -5.51532,1.14148 -10.52298,0.0227 -14.69887,-3.28375 -4.21753,-3.33949 -6.83008,-9.15782 -6.41021,-14.27599 0.18978,-2.31336 0.73926,-4.97559 1.10176,-5.3381 0.51509,-0.51509 1.42605,0.11386 4.5864,3.16659 5.74352,5.54794 8.39049,7.93716 9.24014,8.34034 1.87312,0.88885 4.68684,0.21803 6.0963,-1.45342 1.44681,-1.71575 1.86464,-4.26309 0.97988,-5.97403 -0.24687,-0.47739 -2.22343,-2.69075 -4.39236,-4.91858 -2.16893,-2.22783 -4.84891,-5.00045 -5.95551,-6.16138 l -2.012,-2.11079 0.66328,-0.34753 c 2.30978,-1.21021 9.638,-1.43165 12.38531,-0.37424 4.25961,1.63947 8.93281,6.39251 10.27555,10.45109 1.08972,3.29386 1.27107,7.55211 0.43906,10.31002 l -0.35314,1.17055 17.32856,17.3048 17.32855,17.30481 5.55584,0.11937 c 6.11937,0.13148 6.59258,0.22615 9.27485,1.85554 3.23849,1.96728 6.41196,5.67619 7.58634,8.86632 0.96678,2.62621 0.67544,11.32596 -0.42991,12.83761 -0.31354,0.4288 -0.78245,0.0312 -5.9281,-5.02594 -6.02268,-5.91916 -8.05526,-7.4951 -9.66685,-7.4951 -2.69267,0 -5.73857,3.08876 -5.75528,5.83627 -0.009,1.52833 1.47897,3.36388 8.91154,10.99104 l 4.24513,4.35626 -1.71975,0.54065 c -2.22052,0.69807 -6.98299,0.89269 -9.60483,0.3925 z"
           style="opacity:1;fill:#c70000;fill-opacity:1;fill-rule:nonzero;stroke:#000000;stroke-width:0.50507629;stroke-miterlimit:4;stroke-dasharray:none;stroke-dashoffset:0;stroke-opacity:1" />
        <path
           inkscape:connector-curvature="0"
           id="path4302"
           d="m 271.11134,356.02489 c -2.54863,-0.87542 -4.88452,-4.15527 -5.21565,-7.32335 -0.14291,-1.3673 -0.0795,-1.68382 0.62178,-3.10316 1.1828,-2.39395 3.81553,-5.25301 17.44846,-18.94849 l 12.51231,-12.56971 6.06656,6.06656 6.06656,6.06655 -9.5955,9.62119 c -13.90931,13.94653 -20.40967,20.10754 -21.54895,20.42397 -1.51732,0.42144 -4.79985,0.30081 -6.35557,-0.23356 z"
           style="opacity:1;fill:#c70000;fill-opacity:1;fill-rule:nonzero;stroke:#000000;stroke-width:0.50507629;stroke-miterlimit:4;stroke-dasharray:none;stroke-dashoffset:0;stroke-opacity:1" />
        <path
           inkscape:connector-curvature="0"
           id="path4304"
           d="m 320.62372,301.8589 -2.88105,-2.88924 6.36454,-6.47678 c 8.71456,-8.86822 9.48511,-9.87352 13.29633,-17.34707 l 1.76683,-3.46463 6.15144,-3.19895 6.15143,-3.19895 2.994,3.00178 2.99399,3.00179 -3.24379,6.18718 -3.24379,6.18718 -4.85174,2.58468 c -2.66846,1.42157 -5.66358,3.12437 -6.65581,3.78401 -1.11198,0.73924 -4.45273,3.79242 -8.70839,7.95879 -3.79738,3.7177 -6.98277,6.75946 -7.07864,6.75946 -0.0959,0 -1.47078,-1.30016 -3.05535,-2.88925 z"
           style="opacity:1;fill:#c70000;fill-opacity:1;fill-rule:nonzero;stroke:#000000;stroke-width:0.50507629;stroke-miterlimit:4;stroke-dasharray:none;stroke-dashoffset:0;stroke-opacity:1" />
      </g>
    </clipPath>
  </defs>
  <sodipodi:namedview
     id="base"
     pagecolor="#ffffff"
     bordercolor="#666666"
     borderopacity="1.0"
     inkscape:pageopacity="0.0"
     inkscape:pageshadow="2"
     inkscape:zoom="2.8"
     inkscape:cx="312.95615"
     inkscape:cy="729.00752"
     inkscape:document-units="px"
     inkscape:current-layer="layer1"
     showgrid="false"
     inkscape:window-width="1920"
     inkscape:window-height="1018"
     inkscape:window-x="-8"
     inkscape:window-y="-8"
     inkscape:window-maximized="1" />
  <metadata
     id="metadata7">
    <rdf:RDF>
      <cc:Work
         rdf:about="">
        <dc:format>image/svg+xml</dc:format>
        <dc:type
           rdf:resource="http://purl.org/dc/dcmitype/StillImage" />
        <dc:title></dc:title>
      </cc:Work>
    </rdf:RDF>
  </metadata>
  <g
     inkscape:label="Layer 1"
     inkscape:groupmode="layer"
     id="layer1">
    <path
       style="opacity:1;fill:#ff1717;fill-opacity:1;fill-rule:nonzero;stroke:none;stroke-width:2;stroke-miterlimit:4;stroke-dasharray:none;stroke-dashoffset:0;stroke-opacity:1"
       d="m 307.23311,371.52728 c -14.3197,-1.83795 -28.00431,-8.09648 -37.69716,-17.24042 -7.08339,-6.68226 -11.097,-11.91247 -14.95385,-19.48667 -3.73464,-7.33418 -6.18515,-15.39061 -6.97369,-22.92708 -0.41075,-3.92571 -0.17545,-15.52439 0.38,-18.73144 3.2285,-18.64074 13.77372,-35.00636 29.22567,-45.35674 9.21414,-6.17202 20.17829,-10.15043 30.87483,-11.20312 3.52447,-0.34686 10.3752,-0.34863 13.92814,-0.004 8.15998,0.79243 17.28589,3.58101 24.85573,7.59511 2.9674,1.57353 8.3653,5.13434 10.58561,6.98296 2.47541,2.061 7.87666,7.44361 10.06378,10.02903 4.05476,4.79318 8.70822,12.85825 11.00125,19.06663 3.25976,8.82582 4.39739,15.98128 4.13508,26.00886 -0.16118,6.16208 -0.55021,9.07416 -1.94166,14.53456 -2.92146,11.46455 -8.65388,21.71969 -16.90167,30.23662 -3.97849,4.10831 -7.04216,6.68712 -11.33649,9.54235 -9.47429,6.2993 -20.43636,10.13052 -31.69422,11.07708 -4.23007,0.35566 -10.2423,0.30058 -13.55135,-0.12414 z"
       id="path4332"
       inkscape:connector-curvature="0"
       inkscape:export-xdpi="360"
       inkscape:export-ydpi="360" />
    <path
       style="fill:#494949;fill-opacity:1;stroke:#000000;stroke-opacity:1;stroke-width:6;stroke-miterlimit:4;stroke-dasharray:none"
       d="m 303.38017,361.33303 c -0.32619,-0.0944 -0.83487,-0.4134 -1.13039,-0.70892 -0.49709,-0.49709 -0.57529,-0.77927 -1.04443,-3.76884 -1.07029,-6.8203 -1.44216,-9.2411 -1.6407,-10.68042 -0.11302,-0.81938 -0.29863,-1.58888 -0.41246,-1.70998 -0.11383,-0.12112 -1.21256,-0.74146 -2.44163,-1.37854 -2.53585,-1.31445 -4.53781,-2.50561 -6.09845,-3.62855 l -1.07042,-0.77021 -7.12338,2.87633 c -6.47673,2.61524 -7.23385,2.879 -8.34046,2.90564 -0.86609,0.0209 -1.35552,-0.0611 -1.69713,-0.28422 -0.31285,-0.20433 -2.51524,-3.86875 -6.32365,-10.52159 -5.52149,-9.64535 -5.84369,-10.25938 -5.84489,-11.13917 -0.002,-1.27772 0.31756,-1.66628 3.47489,-4.2284 9.13859,-7.41579 9.18738,-7.45767 9.15372,-7.85552 -0.0183,-0.21616 -0.12826,-1.4295 -0.24438,-2.69631 -0.15736,-1.71677 -0.15735,-2.80748 3e-5,-4.28313 0.11613,-1.0889 0.25293,-2.48262 0.30401,-3.09716 l 0.0929,-1.11733 -5.54865,-4.19002 c -3.05176,-2.3045 -5.87102,-4.47759 -6.26502,-4.82908 -0.86885,-0.77511 -1.43676,-1.83315 -1.42721,-2.65896 0.006,-0.4554 1.49894,-3.21761 5.81946,-10.76179 5.57694,-9.73802 5.85011,-10.17446 6.7435,-10.77412 0.85043,-0.57082 1.01986,-0.61631 1.95534,-0.525 0.57133,0.0557 1.72415,0.4027 2.60712,0.78461 3.86532,1.67181 11.82977,4.92783 12.05382,4.92783 0.1357,0 1.35485,-0.73845 2.70925,-1.641 3.16373,-2.10826 4.44064,-2.85583 5.78498,-3.38684 0.65999,-0.2607 1.15243,-0.58323 1.25221,-0.82015 0.0904,-0.21476 0.42412,-2.19218 0.74151,-4.39426 1.85522,-12.87187 1.58147,-11.77757 3.15439,-12.60935 l 0.80605,-0.42626 11.81426,0 c 10.52521,0 11.88394,0.0331 12.45271,0.30296 0.95879,0.45498 1.37319,1.0906 1.37319,2.10624 0,0.47806 0.25503,2.54081 0.56674,4.5839 0.3117,2.0431 0.77584,5.13932 1.0314,6.88051 0.25556,1.74118 0.53802,3.34246 0.62769,3.55839 0.10469,0.25213 1.11826,0.8821 2.83272,1.76066 1.46834,0.75243 3.57738,1.97941 4.68678,2.72663 1.10939,0.74721 2.13182,1.35857 2.27206,1.35857 0.14025,0 3.42258,-1.27188 7.29406,-2.82639 7.83674,-3.14668 8.57028,-3.33878 9.71444,-2.544 0.49089,0.341 1.88489,2.63729 6.42468,10.58317 5.5558,9.72418 5.79777,10.18798 5.79777,11.11316 0,1.49969 0.4977,1.01643 -8.7722,8.51752 -2.91796,2.36118 -3.88614,3.24597 -3.87174,3.53823 0.0106,0.21436 0.11468,0.93443 0.23137,1.60017 0.29015,1.65538 0.26313,4.39297 -0.0644,6.5178 -0.44671,2.89847 -0.43404,2.96744 0.68399,3.72445 0.52943,0.35849 2.72902,1.88186 4.88798,3.38527 2.15896,1.50342 4.7896,3.33446 5.84586,4.06899 1.13064,0.78624 1.99226,1.52427 2.09501,1.79453 0.25071,0.65942 0.21508,1.65329 -0.0851,2.37155 -0.42715,1.0223 -11.47713,20.2819 -11.89877,20.739 -0.58499,0.63419 -1.67079,0.90286 -2.61595,0.64732 -0.42642,-0.11529 -3.90057,-1.45952 -7.72032,-2.98716 l -6.945,-2.77754 -0.78325,0.59721 c -1.37761,1.05039 -3.32064,2.22073 -5.99747,3.61244 -1.43392,0.74552 -2.6824,1.42777 -2.77441,1.51614 -0.092,0.0883 -0.39602,1.69434 -0.6756,3.56885 -1.86508,12.50507 -1.74821,11.91138 -2.48008,12.59894 -1.03188,0.96939 -0.89168,0.95967 -13.57077,0.9416 -6.57675,-0.009 -12.04666,-0.0927 -12.37764,-0.1884 z m 14.09911,-36.48739 c 6.01446,-0.73533 11.32677,-4.1274 14.73642,-9.40964 0.80809,-1.25188 1.79315,-3.50453 2.33375,-5.33688 0.46849,-1.58786 0.51022,-1.99091 0.51634,-4.9864 0.007,-2.97934 -0.0362,-3.41206 -0.49301,-5.04444 -3.09223,-11.04977 -14.34328,-17.39923 -25.01285,-14.11584 -6.82869,2.10141 -12.34205,8.03974 -13.81251,14.87717 -0.46629,2.16819 -0.46631,6.21279 -4e-5,8.377 1.69326,7.85929 8.65441,14.38756 16.57329,15.54269 2.17318,0.31701 3.19723,0.33613 5.15861,0.0963 z"
       id="path4274"
       inkscape:connector-curvature="0"
       inkscape:export-xdpi="360"
       inkscape:export-ydpi="360" />
  </g>
</svg>
