<?xml version="1.0" encoding="UTF-8" standalone="no"?>
<!-- Created with Inkscape (http://www.inkscape.org/) -->

<svg
   xmlns:dc="http://purl.org/dc/elements/1.1/"
   xmlns:cc="http://creativecommons.org/ns#"
   xmlns:rdf="http://www.w3.org/1999/02/22-rdf-syntax-ns#"
   xmlns:svg="http://www.w3.org/2000/svg"
   xmlns="http://www.w3.org/2000/svg"
   xmlns:sodipodi="http://sodipodi.sourceforge.net/DTD/sodipodi-0.dtd"
   xmlns:inkscape="http://www.inkscape.org/namespaces/inkscape"
   width="210mm"
   height="297mm"
   viewBox="0 0 744.09448819 1052.3622047"
   id="svg2"
   version="1.1"
   inkscape:version="0.91 r13725"
   sodipodi:docname="utils_logo.svg">
  <defs
     id="defs4">
    <clipPath
       clipPathUnits="userSpaceOnUse"
       id="clipPath4251">
      <path
         style="opacity:0.87300002;fill:#000000"
         d="m 249.54385,386.67667 c -9.12536,-1.06024 -12.70053,-4.81447 -13.81038,-14.50214 -0.6987,-6.09841 -0.6987,-116.31883 0,-122.41723 1.1404,-9.95435 4.57995,-13.39959 14.51354,-14.53757 6.14673,-0.70418 116.3247,-0.70418 122.47143,0 9.93361,1.13798 13.37315,4.58322 14.51355,14.53757 0.70127,6.12108 0.6985,116.32028 -0.002,122.44433 -1.13798,9.93361 -4.58322,13.37315 -14.53757,14.51357 -5.50918,0.63115 -117.68566,0.59607 -123.1475,-0.0384 z m 28.78475,-30.67526 c 0.75521,-0.40107 7.89204,-7.26474 15.8596,-15.2526 l 14.4865,-14.52339 -6.09072,-6.10663 -6.09071,-6.10661 -14.63019,14.62162 c -15.62463,15.6155 -16.61013,16.89776 -15.97848,20.79018 0.41081,2.53147 2.42891,5.43052 4.48581,6.44397 2.10851,1.03885 6.12637,1.10625 7.95819,0.13342 z m 67.94217,-0.24142 1.48152,-0.59297 -6.36763,-6.46429 c -3.94507,-4.00495 -6.49957,-7.01309 -6.7144,-7.90683 -0.50881,-2.1167 1.0533,-4.96197 3.33723,-6.07856 2.98699,-1.46028 4.11256,-0.84285 11.21205,6.15052 l 6.46429,6.36762 0.64928,-1.48151 c 0.3778,-0.86211 0.64837,-3.50129 0.64714,-6.31224 -9.5e-4,-4.23455 -0.16755,-5.14452 -1.34234,-7.37321 -1.70379,-3.23228 -4.55519,-6.08648 -7.79768,-7.80523 -2.31779,-1.22859 -3.04785,-1.34724 -8.26062,-1.34252 l -5.71814,0.005 -17.28654,-17.29406 -17.28654,-17.29404 0.56408,-2.03399 c 0.73493,-2.64998 0.23754,-7.81347 -1.0283,-10.67512 -1.40473,-3.17564 -5.27658,-7.12032 -8.57079,-8.73203 -2.27898,-1.11501 -3.51281,-1.37025 -6.67378,-1.38062 -3.57115,-0.0125 -7.69161,0.84938 -7.69161,1.60744 0,0.17485 2.86028,3.20867 6.3562,6.74182 6.13782,6.20324 6.35621,6.49845 6.35621,8.5922 0,4.0514 -4.28805,6.8387 -7.78802,5.06234 -0.61087,-0.31007 -3.80576,-3.22757 -7.09973,-6.48334 -6.66988,-6.59254 -6.53868,-6.56931 -7.453,-1.31905 -2.03317,11.6754 8.77712,22.07317 20.36513,19.58799 l 2.69779,-0.57856 17.44087,17.43356 c 12.37101,12.3658 17.34291,17.65524 17.10394,18.19627 -0.18532,0.41953 -0.44046,2.27968 -0.56698,4.13375 -0.53202,7.79503 3.94315,14.72975 11.16889,17.30735 2.98416,1.06455 9.09609,1.04494 11.80148,-0.038 z m -15.07969,-58.1421 c 6.92917,-6.93785 7.50376,-7.38572 13.50747,-10.52889 l 6.27044,-3.28279 3.26634,-6.23871 3.26632,-6.23872 -3.05098,-3.04807 -3.05097,-3.04804 -6.10196,3.18017 -6.10196,3.18016 -3.05099,5.82995 c -2.86483,5.47425 -3.52361,6.31154 -10.79836,13.72431 l -7.74738,7.89442 2.91114,2.91114 c 1.60114,1.60112 3.031,2.91114 3.17751,2.91114 0.14648,0 3.52301,-3.26073 7.50338,-7.24607 z"
         id="path4253"
         inkscape:connector-curvature="0" />
    </clipPath>
  </defs>
  <sodipodi:namedview
     id="base"
     pagecolor="#ffffff"
     bordercolor="#666666"
     borderopacity="1.0"
     inkscape:pageopacity="0.0"
     inkscape:pageshadow="2"
     inkscape:zoom="2.8"
     inkscape:cx="292.64483"
     inkscape:cy="734.45205"
     inkscape:document-units="px"
     inkscape:current-layer="layer1"
     showgrid="false"
     inkscape:window-width="1920"
     inkscape:window-height="1018"
     inkscape:window-x="-8"
     inkscape:window-y="-8"
     inkscape:window-maximized="1" />
  <metadata
     id="metadata7">
    <rdf:RDF>
      <cc:Work
         rdf:about="">
        <dc:format>image/svg+xml</dc:format>
        <dc:type
           rdf:resource="http://purl.org/dc/dcmitype/StillImage" />
        <dc:title />
      </cc:Work>
    </rdf:RDF>
  </metadata>
  <g
     inkscape:label="Layer 1"
     inkscape:groupmode="layer"
     id="layer1">
    <circle
       style="opacity:1;fill:#64d100;fill-opacity:1;fill-rule:nonzero;stroke:none;stroke-width:3.488;stroke-miterlimit:4;stroke-dasharray:none;stroke-dashoffset:0;stroke-opacity:1"
       id="path4136"
       cx="310.71429"
       cy="311.64792"
       r="67.85714"
       inkscape:export-xdpi="360"
       inkscape:export-ydpi="360"
       clip-path="url(#clipPath4251)" />
    <path
       style="opacity:1;fill:#a2a2a2;fill-opacity:1;fill-rule:nonzero;stroke:#000000;stroke-width:4;stroke-miterlimit:4;stroke-dasharray:none;stroke-dashoffset:0;stroke-opacity:1"
       d="m 337.65071,356.29925 c -7.55985,-0.78876 -13.63034,-7.32559 -14.19369,-15.28404 -0.0799,-1.12818 -0.007,-3.15157 0.16259,-4.49643 l 0.30778,-2.44521 -1.09055,-1.43821 c -0.5998,-0.79102 -8.37932,-8.76174 -17.28783,-17.71271 l -16.19728,-16.27448 -2.24075,0.42939 c -6.36606,1.21993 -11.39683,-0.2514 -15.77025,-4.61223 -2.40502,-2.39811 -3.39781,-3.95961 -4.42341,-6.95729 -0.57553,-1.68222 -0.69329,-2.46404 -0.70368,-4.67195 -0.0136,-2.88422 0.64955,-6.50391 1.23249,-6.7276 0.59304,-0.22757 1.442,0.41319 4.54466,3.43013 7.84533,7.62857 9.06183,8.58293 10.95611,8.59522 3.19093,0.0207 5.64518,-2.43694 5.69019,-5.69808 0.0283,-2.05326 -0.15097,-2.29268 -7.09582,-9.47386 l -5.70438,-5.89851 0.97249,-0.42906 c 2.5745,-1.13587 9.33975,-1.2656 12.03468,-0.23077 4.2488,1.63148 8.94044,6.3985 10.26572,10.43065 1.06871,3.25155 1.23152,7.17195 0.42483,10.22995 l -0.33373,1.26511 17.33088,17.31286 17.33087,17.31287 5.55584,0.0965 c 5.00373,0.0869 5.69721,0.15205 6.97847,0.65579 3.77845,1.48558 8.06135,5.69706 9.68457,9.52309 0.99596,2.34754 0.98807,10.47354 -0.0125,12.86822 l -0.40199,0.96209 -3.70486,-3.65162 c -8.46485,-8.34319 -9.67926,-9.30769 -11.71933,-9.30769 -2.88711,0 -5.74887,2.98271 -5.74887,5.99184 0,1.35244 1.79207,3.53656 8.7757,10.69549 2.25706,2.31372 4.10374,4.26943 4.10374,4.34602 0,0.46116 -5.60673,1.53637 -7.3236,1.40446 -0.20835,-0.016 -1.28795,-0.12396 -2.39911,-0.23989 z"
       id="path4257"
       inkscape:connector-curvature="0"
       inkscape:export-xdpi="360"
       inkscape:export-ydpi="360" />
    <path
       style="opacity:1;fill:#a2a2a2;fill-opacity:1;fill-rule:nonzero;stroke:#000000;stroke-width:4;stroke-miterlimit:4;stroke-dasharray:none;stroke-dashoffset:0;stroke-opacity:1"
       d="m 320.5003,301.78194 -2.80011,-2.77243 5.19432,-5.24566 c 9.71151,-9.80748 10.39882,-10.66282 13.75883,-17.12251 1.08154,-2.07928 2.17852,-4.08773 2.43773,-4.46322 0.31965,-0.46303 2.38711,-1.67153 6.42534,-3.75582 l 5.95405,-3.07311 2.88353,2.87194 c 1.58594,1.57956 2.85172,3.0424 2.81284,3.25074 -0.0389,0.20834 -1.46307,3.0494 -3.16486,6.31345 l -3.09417,5.93465 -4.59744,2.39911 c -2.5286,1.31951 -5.40076,2.92 -6.38258,3.55664 -2.04138,1.32369 -6.33516,5.23932 -11.99674,10.94021 -2.1512,2.16614 -4.07314,3.93844 -4.27096,3.93844 -0.19782,0 -1.61972,-1.2476 -3.15978,-2.77243 z"
       id="path4259"
       inkscape:connector-curvature="0"
       inkscape:export-xdpi="360"
       inkscape:export-ydpi="360" />
    <path
       style="opacity:1;fill:#c70000;fill-opacity:1;fill-rule:nonzero;stroke:#000000;stroke-width:4;stroke-miterlimit:4;stroke-dasharray:none;stroke-dashoffset:0;stroke-opacity:1"
       d="m 271.81208,356.23927 c -4.31334,-1.21962 -7.21579,-7.07448 -5.30521,-10.70176 1.14027,-2.16481 4.74713,-6.05823 17.21223,-18.57972 l 12.76789,-12.82565 6.02889,6.04019 6.0289,6.04018 -9.43816,9.4655 c -11.41771,11.45079 -19.45961,19.24026 -20.73533,20.08449 -0.78351,0.51851 -1.32256,0.64127 -3.15757,0.71909 -1.3634,0.0578 -2.66913,-0.0352 -3.40164,-0.24232 z"
       id="path4261"
       inkscape:connector-curvature="0"
       inkscape:export-xdpi="360"
       inkscape:export-ydpi="360" />
  </g>
</svg>
