<?xml version="1.0" encoding="UTF-8" standalone="no"?>
<!-- Created with Inkscape (http://www.inkscape.org/) -->

<svg
   xmlns:dc="http://purl.org/dc/elements/1.1/"
   xmlns:cc="http://creativecommons.org/ns#"
   xmlns:rdf="http://www.w3.org/1999/02/22-rdf-syntax-ns#"
   xmlns:svg="http://www.w3.org/2000/svg"
   xmlns="http://www.w3.org/2000/svg"
   xmlns:sodipodi="http://sodipodi.sourceforge.net/DTD/sodipodi-0.dtd"
   xmlns:inkscape="http://www.inkscape.org/namespaces/inkscape"
   width="605.08429"
   height="53.503468"
   id="svg5716"
   version="1.1"
   inkscape:version="0.48.4 r9939"
   sodipodi:docname="New document 15">
  <defs
     id="defs5718">
    <clipPath
       id="clipPath5759"
       clipPathUnits="userSpaceOnUse">
      <path
         id="path5761"
         d="M -3.81e-6,0 560,0 560,420 -3.81e-6,420 l 0,-420 z"
         inkscape:connector-curvature="0" />
    </clipPath>
  </defs>
  <sodipodi:namedview
     id="base"
     pagecolor="#ffffff"
     bordercolor="#666666"
     borderopacity="1.0"
     inkscape:pageopacity="0.0"
     inkscape:pageshadow="2"
     inkscape:zoom="1.4"
     inkscape:cx="357.63177"
     inkscape:cy="41.887704"
     inkscape:document-units="px"
     inkscape:current-layer="g5753"
     showgrid="false"
     fit-margin-top="0"
     fit-margin-left="0"
     fit-margin-right="0"
     fit-margin-bottom="0"
     inkscape:window-width="1855"
     inkscape:window-height="1056"
     inkscape:window-x="65"
     inkscape:window-y="24"
     inkscape:window-maximized="1" />
  <metadata
     id="metadata5721">
    <rdf:RDF>
      <cc:Work
         rdf:about="">
        <dc:format>image/svg+xml</dc:format>
        <dc:type
           rdf:resource="http://purl.org/dc/dcmitype/StillImage" />
        <dc:title></dc:title>
      </cc:Work>
    </rdf:RDF>
  </metadata>
  <g
     inkscape:label="Layer 1"
     inkscape:groupmode="layer"
     id="layer1"
     transform="translate(-81.283956,-80.07473)">
    <g
       transform="matrix(1.25,0,0,-1.25,-145.35714,878.79073)"
       inkscape:label="thin_reproducing_element"
       id="g5751">
      <g
         transform="matrix(0.125,0,0,-0.125,-5.7142857,844)"
         id="g5753">
        <path
           style="fill:#cadfc3;fill-opacity:1;stroke:#ffffff;stroke-width:22.79672813;stroke-miterlimit:4;stroke-opacity:1;stroke-dasharray:none"
           d="m 4168.8705,1755.3479 c -124.7476,-26.4721 -227.4614,-48.514 -228.253,-48.9817 -1.44,-0.851 211.2558,-34.6086 218.0573,-34.6086 3.9567,0 241.7664,130.8155 238.8273,131.3753 -0.9999,0.1904 -103.8841,-21.3128 -228.6316,-47.785 z"
           id="path4234"
           inkscape:connector-curvature="0" />
        <path
           style="fill:#cadfc3;fill-opacity:1;stroke:#ffffff;stroke-width:22.79672813;stroke-miterlimit:4;stroke-opacity:1;stroke-dasharray:none"
           d="m 3783.1829,1842.787 c 84.6203,-78.0277 145.3715,-132.1411 148.1447,-131.9578 4.5943,0.3037 475.8215,100.3473 475.8215,101.019 0,0.2901 -140.8465,9.8123 -312.9923,21.1604 -172.1458,11.3482 -315.3637,20.7962 -318.2622,20.9957 -3.4166,0.2351 -0.8533,-3.7099 7.2883,-11.2173 l 0,0 z"
           id="path4236"
           inkscape:connector-curvature="0" />
        <path
           style="fill:#cadfc3;fill-opacity:1;stroke:#ffffff;stroke-width:22.79672813;stroke-miterlimit:4;stroke-opacity:1;stroke-dasharray:none"
           d="m 4430.259,1808.9602 c -8.0392,-3.6468 -247.7642,-136.6148 -246.6132,-136.7887 0.5957,-0.09 253.7093,26.9104 562.4737,60.0011 503.8356,53.9968 560.0197,60.2344 548.0232,60.8416 -7.3518,0.3721 -193.9393,4.352 -414.639,8.8443 -220.6996,4.4922 -411.0022,8.4104 -422.8944,8.7071 -19.647,0.4901 -22.0541,0.3435 -26.3503,-1.6054 l 0,0 z"
           id="path4238"
           inkscape:connector-curvature="0" />
        <path
           style="fill:#cadfc3;fill-opacity:1;stroke:#ffffff;stroke-width:22.79672813;stroke-miterlimit:4;stroke-opacity:1;stroke-dasharray:none"
           d="m 4833.6441,1855.9196 c -200.5215,-22.3275 -367.1278,-40.896 -370.2364,-41.2634 -3.1087,-0.3673 189.3503,-4.683 427.6862,-9.5906 238.3363,-4.9075 434.6221,-8.6699 436.1908,-8.3609 3.4322,0.6762 -122.0651,100.0391 -126.181,99.9045 -1.5814,-0.052 -166.9382,-18.362 -367.4596,-40.6896 z"
           id="path4240"
           inkscape:connector-curvature="0" />
        <path
           style="fill:#cadfc3;fill-opacity:1;stroke:#ffffff;stroke-width:22.79672813;stroke-miterlimit:4;stroke-opacity:1;stroke-dasharray:none"
           d="m 4187.8734,1950.0153 c 0.7931,-0.4342 56.0781,-30.8641 122.8555,-67.622 l 121.4132,-66.8326 30.2233,3.3062 c 175.8472,19.2362 715.0393,79.3012 715.1205,79.663 0.083,0.3734 -480.0031,25.7233 -925.4089,48.8642 -36.1051,1.8759 -64.9967,3.0554 -64.2036,2.6212 z"
           id="path4242"
           inkscape:connector-curvature="0" />
        <path
           style="fill:#cadfc3;fill-opacity:1;stroke:#ffffff;stroke-width:22.79672813;stroke-miterlimit:4;stroke-opacity:1;stroke-dasharray:none"
           d="m 3972.5125,1903.8637 c -129.0613,-29.6633 -196.0435,-45.7212 -192.3809,-46.1202 10.6735,-1.1628 624.107,-41.4829 627.3869,-41.2372 1.8093,0.1355 -48.8253,28.9322 -112.5212,63.9927 -63.6959,35.0606 -117.7624,64.8998 -120.1478,66.3095 -4.2252,2.4969 -9.4493,1.3881 -202.337,-42.9448 l 0,0 z"
           id="path4244"
           inkscape:connector-curvature="0" />
        <g
           transform="matrix(6.0190824,0,0,1.1857069,2804.1981,1570.5381)"
           id="g3150"
           style="stroke:#ff1616;stroke-width:2.13333344;stroke-miterlimit:4;stroke-opacity:1;stroke-dasharray:none">
          <path
             id="path3152"
             style="fill:none;stroke:#ff1616;stroke-width:2.13333344;stroke-linecap:square;stroke-linejoin:round;stroke-miterlimit:4;stroke-opacity:1;stroke-dasharray:none"
             d="M 185.25394,113.49655 158.05341,241.81866"
             inkscape:connector-curvature="0" />
        </g>
        <g
           transform="matrix(6.0190824,0,0,1.1857069,2804.1981,1570.5381)"
           id="g3154"
           style="stroke:#ff1616;stroke-width:2.13333344;stroke-miterlimit:4;stroke-opacity:1;stroke-dasharray:none">
          <path
             id="path3156"
             style="fill:none;stroke:#ff1616;stroke-width:2.13333344;stroke-linecap:square;stroke-linejoin:round;stroke-miterlimit:4;stroke-opacity:1;stroke-dasharray:none"
             d="M 269.66583,204.3912 227.14308,323.29843"
             inkscape:connector-curvature="0" />
        </g>
        <g
           transform="matrix(6.0190824,0,0,1.1857069,2804.1981,1570.5381)"
           id="g3158"
           style="stroke:#ff1616;stroke-width:2.13333344;stroke-miterlimit:4;stroke-opacity:1;stroke-dasharray:none">
          <path
             id="path3160"
             style="fill:none;stroke:#ff1616;stroke-width:2.13333344;stroke-linecap:square;stroke-linejoin:round;stroke-miterlimit:4;stroke-opacity:1;stroke-dasharray:none"
             d="M 227.14308,323.29843 399.69162,277.57202"
             inkscape:connector-curvature="0" />
        </g>
        <g
           transform="matrix(6.0190824,0,0,1.1857069,2804.1981,1570.5381)"
           id="g3162"
           style="stroke:#ff1616;stroke-width:2.13333344;stroke-miterlimit:4;stroke-opacity:1;stroke-dasharray:none">
          <path
             id="path3164"
             style="fill:none;stroke:#ff1616;stroke-width:2.13333344;stroke-linecap:square;stroke-linejoin:round;stroke-miterlimit:4;stroke-opacity:1;stroke-dasharray:none"
             d="M 269.66583,204.3912 158.05341,241.81866"
             inkscape:connector-curvature="0" />
        </g>
        <g
           transform="matrix(6.0190824,0,0,1.1857069,2804.1981,1570.5381)"
           id="g3166"
           style="stroke:#ff1616;stroke-width:2.13333344;stroke-miterlimit:4;stroke-opacity:1;stroke-dasharray:none">
          <path
             id="path3168"
             style="fill:none;stroke:#ff1616;stroke-width:2.13333344;stroke-linecap:round;stroke-linejoin:round;stroke-miterlimit:4;stroke-opacity:1;stroke-dasharray:none"
             d="M 227.14308,323.29843 269.66583,204.3912"
             inkscape:connector-curvature="0" />
        </g>
        <g
           transform="matrix(6.0190824,0,0,1.1857069,2804.1981,1570.5381)"
           id="g3170"
           style="stroke:#ff1616;stroke-width:2.13333344;stroke-miterlimit:4;stroke-opacity:1;stroke-dasharray:none">
          <path
             id="path3172"
             style="fill:none;stroke:#ff1616;stroke-width:2.13333344;stroke-linecap:square;stroke-linejoin:round;stroke-miterlimit:4;stroke-opacity:1;stroke-dasharray:none"
             d="m 158.05341,241.81866 69.08967,81.47977"
             inkscape:connector-curvature="0" />
        </g>
        <g
           transform="matrix(6.0190824,0,0,1.1857069,2804.1981,1570.5381)"
           id="g3174"
           style="stroke:#ff1616;stroke-width:2.13333344;stroke-miterlimit:4;stroke-opacity:1;stroke-dasharray:none">
          <path
             id="path3176"
             style="fill:none;stroke:#ff1616;stroke-width:2.13333344;stroke-linecap:square;stroke-linejoin:round;stroke-miterlimit:4;stroke-opacity:1;stroke-dasharray:none"
             d="M 269.66583,204.3912 185.25394,113.49655"
             inkscape:connector-curvature="0" />
        </g>
        <g
           transform="matrix(6.0190824,0,0,1.1857069,2804.1981,1570.5381)"
           id="g3178"
           style="stroke:#ff1616;stroke-width:2.13333344;stroke-miterlimit:4;stroke-opacity:1;stroke-dasharray:none">
          <path
             id="path3180"
             style="fill:none;stroke:#ff1616;stroke-width:2.13333344;stroke-linecap:round;stroke-linejoin:round;stroke-miterlimit:4;stroke-opacity:1;stroke-dasharray:none"
             d="M 158.05341,241.81866 269.66583,204.3912"
             inkscape:connector-curvature="0" />
        </g>
        <g
           transform="matrix(6.0190824,0,0,1.1857069,2804.1981,1570.5381)"
           id="g3182"
           style="stroke:#ff1616;stroke-width:2.13333344;stroke-miterlimit:4;stroke-opacity:1;stroke-dasharray:none">
          <path
             id="path3184"
             style="fill:none;stroke:#ff1616;stroke-width:2.13333344;stroke-linecap:square;stroke-linejoin:round;stroke-miterlimit:4;stroke-opacity:1;stroke-dasharray:none"
             d="m 399.69162,277.57202 22.25497,-89.11203"
             inkscape:connector-curvature="0" />
        </g>
        <g
           transform="matrix(6.0190824,0,0,1.1857069,2804.1981,1570.5381)"
           id="g3186"
           style="stroke:#ff1616;stroke-width:2.13333344;stroke-miterlimit:4;stroke-opacity:1;stroke-dasharray:none">
          <path
             id="path3188"
             style="fill:none;stroke:#ff1616;stroke-width:2.13333344;stroke-linecap:square;stroke-linejoin:round;stroke-miterlimit:4;stroke-opacity:1;stroke-dasharray:none"
             d="M 269.66583,204.3912 225.9064,81.701561"
             inkscape:connector-curvature="0" />
        </g>
        <g
           transform="matrix(6.0190824,0,0,1.1857069,2804.1981,1570.5381)"
           id="g3190"
           style="stroke:#ff1616;stroke-width:2.13333344;stroke-miterlimit:4;stroke-opacity:1;stroke-dasharray:none">
          <path
             id="path3192"
             style="fill:none;stroke:#ff1616;stroke-width:2.13333344;stroke-linecap:round;stroke-linejoin:round;stroke-miterlimit:4;stroke-opacity:1;stroke-dasharray:none"
             d="m 185.25394,113.49655 84.41189,90.89465"
             inkscape:connector-curvature="0" />
        </g>
        <g
           transform="matrix(6.0190824,0,0,1.1857069,2804.1981,1570.5381)"
           id="g3194"
           style="stroke:#ff1616;stroke-width:2.13333344;stroke-miterlimit:4;stroke-opacity:1;stroke-dasharray:none">
          <path
             id="path3196"
             style="fill:none;stroke:#ff1616;stroke-width:2.13333344;stroke-linecap:square;stroke-linejoin:round;stroke-miterlimit:4;stroke-opacity:1;stroke-dasharray:none"
             d="M 225.9064,81.701561 185.25394,113.49655"
             inkscape:connector-curvature="0" />
        </g>
        <g
           transform="matrix(6.0190824,0,0,1.1857069,2804.1981,1570.5381)"
           id="g3198"
           style="stroke:#ff1616;stroke-width:2.13333344;stroke-miterlimit:4;stroke-opacity:1;stroke-dasharray:none">
          <path
             id="path3200"
             style="fill:none;stroke:#ff1616;stroke-width:2.13333344;stroke-linecap:square;stroke-linejoin:round;stroke-miterlimit:4;stroke-opacity:1;stroke-dasharray:none"
             d="M 269.66583,204.3912 421.94659,188.45999"
             inkscape:connector-curvature="0" />
        </g>
        <g
           transform="matrix(6.0190824,0,0,1.1857069,2804.1981,1570.5381)"
           id="g3202"
           style="stroke:#ff1616;stroke-width:2.13333344;stroke-miterlimit:4;stroke-opacity:1;stroke-dasharray:none">
          <path
             id="path3204"
             style="fill:none;stroke:#ff1616;stroke-width:2.13333344;stroke-linecap:round;stroke-linejoin:round;stroke-miterlimit:4;stroke-opacity:1;stroke-dasharray:none"
             d="M 225.9064,81.701561 269.66583,204.3912"
             inkscape:connector-curvature="0" />
        </g>
        <g
           transform="matrix(6.0190824,0,0,1.1857069,2804.1981,1570.5381)"
           id="g3206"
           style="stroke:#ff1616;stroke-width:2.13333344;stroke-miterlimit:4;stroke-opacity:1;stroke-dasharray:none">
          <path
             id="path3208"
             style="fill:none;stroke:#ff1616;stroke-width:2.13333344;stroke-linecap:square;stroke-linejoin:round;stroke-miterlimit:4;stroke-opacity:1;stroke-dasharray:none"
             d="M 421.94659,188.45999 225.9064,81.701561"
             inkscape:connector-curvature="0" />
        </g>
        <g
           transform="matrix(6.0190824,0,0,1.1857069,2804.1981,1570.5381)"
           id="g3210"
           style="stroke:#ff1616;stroke-width:2.13333344;stroke-miterlimit:4;stroke-opacity:1;stroke-dasharray:none">
          <path
             id="path3212"
             style="fill:none;stroke:#ff1616;stroke-width:2.13333344;stroke-linecap:round;stroke-linejoin:round;stroke-miterlimit:4;stroke-opacity:1;stroke-dasharray:none"
             d="M 421.94659,188.45999 269.66583,204.3912"
             inkscape:connector-curvature="0" />
        </g>
        <g
           transform="matrix(6.0190824,0,0,1.1857069,2804.1981,1570.5381)"
           id="g3214"
           style="stroke:#ff1616;stroke-width:2.13333344;stroke-miterlimit:4;stroke-opacity:1;stroke-dasharray:none">
          <path
             id="path3216"
             style="fill:none;stroke:#ff1616;stroke-width:2.13333344;stroke-linecap:square;stroke-linejoin:round;stroke-miterlimit:4;stroke-opacity:1;stroke-dasharray:none"
             d="m 269.66583,204.3912 130.02579,73.18082"
             inkscape:connector-curvature="0" />
        </g>
        <g
           transform="matrix(6.0190824,0,0,1.1857069,2804.1981,1570.5381)"
           id="g3218"
           style="stroke:#ff1616;stroke-width:2.13333344;stroke-miterlimit:4;stroke-opacity:1;stroke-dasharray:none">
          <path
             id="path3220"
             style="fill:none;stroke:#ff1616;stroke-width:2.13333344;stroke-linecap:round;stroke-linejoin:round;stroke-miterlimit:4;stroke-opacity:1;stroke-dasharray:none"
             d="M 399.69162,277.57202 269.66583,204.3912"
             inkscape:connector-curvature="0" />
        </g>
        <path
           style="fill:none;stroke:#000000;stroke-width:8.54877377;stroke-linecap:butt;stroke-linejoin:miter;stroke-miterlimit:4;stroke-opacity:1;stroke-dasharray:none"
           d="m 1928.013,1666.8247 -243.2076,38.0084 -167.0027,152.3532 419.9387,96.4584 1037.686,-54.2977 136.1962,-105.721 z"
           id="path3327"
           inkscape:connector-curvature="0" />
        <path
           style="fill:none;stroke:#ff1616;stroke-width:8.54877377;stroke-linecap:butt;stroke-linejoin:miter;stroke-miterlimit:4;stroke-opacity:1;stroke-dasharray:none"
           d="m 4164.7129,1667.1441 -243.2077,38.0084 -167.0026,152.3532 419.9386,96.4584 1037.6861,-54.2977 136.1962,-105.721 z"
           id="path3327-6"
           inkscape:connector-curvature="0" />
        <g
           id="g4561-8-7-7"
           transform="matrix(1.6606426,0,0,1.6606426,4118.5328,1699.0317)">
          <path
             inkscape:connector-curvature="0"
             d="m 195.988,68.781 c 0,5.223 -4.234,9.457 -9.457,9.457 -5.219,0 -9.453,-4.234 -9.453,-9.457 0,-5.219 4.234,-9.453 9.453,-9.453 5.223,0 9.457,4.234 9.457,9.453 z"
             style="fill:#ffffff;fill-opacity:1;fill-rule:nonzero;stroke:#ffffff;stroke-width:12;stroke-linecap:butt;stroke-linejoin:round;stroke-miterlimit:4;stroke-opacity:1;stroke-dasharray:none"
             id="path4563-8-6-53" />
        </g>
        <path
           inkscape:connector-curvature="0"
           d="m 4444.1416,1811.8575 c 0,8.6736 -7.0312,15.7047 -15.7047,15.7047 -8.6669,0 -15.6982,-7.0311 -15.6982,-15.7047 0,-8.6652 7.0313,-15.698 15.6982,-15.698 8.6735,0 15.7047,7.0328 15.7047,15.698 z"
           style="fill:#130aff;fill-opacity:1;fill-rule:nonzero;stroke:none"
           id="path4573-5-31-88" />
        <g
           id="g4561-8-7-7-6"
           transform="matrix(1.6606426,0,0,1.6606426,5033.3268,1679.6368)">
          <path
             inkscape:connector-curvature="0"
             d="m 195.988,68.781 c 0,5.223 -4.234,9.457 -9.457,9.457 -5.219,0 -9.453,-4.234 -9.453,-9.457 0,-5.219 4.234,-9.453 9.453,-9.453 5.223,0 9.457,4.234 9.457,9.453 z"
             style="fill:#ffffff;fill-opacity:1;fill-rule:nonzero;stroke:#ffffff;stroke-width:12;stroke-linecap:butt;stroke-linejoin:round;stroke-miterlimit:4;stroke-opacity:1;stroke-dasharray:none"
             id="path4563-8-6-53-4" />
        </g>
        <path
           inkscape:connector-curvature="0"
           d="m 5358.9357,1792.4626 c 0,8.6736 -7.0312,15.7047 -15.7047,15.7047 -8.667,0 -15.6983,-7.0311 -15.6983,-15.7047 0,-8.6652 7.0313,-15.698 15.6983,-15.698 8.6735,0 15.7047,7.0328 15.7047,15.698 z"
           style="fill:#130aff;fill-opacity:1;fill-rule:nonzero;stroke:none"
           id="path4573-5-31-88-3" />
        <g
           id="g4561-8-7-7-3"
           transform="matrix(1.6606426,0,0,1.6606426,4888.673,1783.0764)">
          <path
             inkscape:connector-curvature="0"
             d="m 195.988,68.781 c 0,5.223 -4.234,9.457 -9.457,9.457 -5.219,0 -9.453,-4.234 -9.453,-9.457 0,-5.219 4.234,-9.453 9.453,-9.453 5.223,0 9.457,4.234 9.457,9.453 z"
             style="fill:#ffffff;fill-opacity:1;fill-rule:nonzero;stroke:#ffffff;stroke-width:12;stroke-linecap:butt;stroke-linejoin:round;stroke-miterlimit:4;stroke-opacity:1;stroke-dasharray:none"
             id="path4563-8-6-53-3" />
        </g>
        <path
           inkscape:connector-curvature="0"
           d="m 5214.2818,1895.9022 c 0,8.6736 -7.0312,15.7047 -15.7047,15.7047 -8.6669,0 -15.6982,-7.0311 -15.6982,-15.7047 0,-8.6652 7.0313,-15.698 15.6982,-15.698 8.6735,0 15.7047,7.0328 15.7047,15.698 z"
           style="fill:#130aff;fill-opacity:1;fill-rule:nonzero;stroke:none"
           id="path4573-5-31-88-8" />
        <g
           id="g4561-8-7-7-60"
           transform="matrix(1.6606426,0,0,1.6606426,3865.5905,1838.8369)">
          <path
             inkscape:connector-curvature="0"
             d="m 195.988,68.781 c 0,5.223 -4.234,9.457 -9.457,9.457 -5.219,0 -9.453,-4.234 -9.453,-9.457 0,-5.219 4.234,-9.453 9.453,-9.453 5.223,0 9.457,4.234 9.457,9.453 z"
             style="fill:#ffffff;fill-opacity:1;fill-rule:nonzero;stroke:#ffffff;stroke-width:12;stroke-linecap:butt;stroke-linejoin:round;stroke-miterlimit:4;stroke-opacity:1;stroke-dasharray:none"
             id="path4563-8-6-53-48" />
        </g>
        <path
           inkscape:connector-curvature="0"
           d="m 4191.1993,1951.6627 c 0,8.6736 -7.0312,15.7047 -15.7047,15.7047 -8.6669,0 -15.6982,-7.0311 -15.6982,-15.7047 0,-8.6652 7.0313,-15.698 15.6982,-15.698 8.6735,0 15.7047,7.0328 15.7047,15.698 z"
           style="fill:#130aff;fill-opacity:1;fill-rule:nonzero;stroke:none"
           id="path4573-5-31-88-88" />
        <g
           id="g4561-8-7-7-60-9"
           transform="matrix(1.6606426,0,0,1.6606426,3451.0239,1741.0541)">
          <path
             inkscape:connector-curvature="0"
             d="m 195.988,68.781 c 0,5.223 -4.234,9.457 -9.457,9.457 -5.219,0 -9.453,-4.234 -9.453,-9.457 0,-5.219 4.234,-9.453 9.453,-9.453 5.223,0 9.457,4.234 9.457,9.453 z"
             style="fill:#ffffff;fill-opacity:1;fill-rule:nonzero;stroke:#ffffff;stroke-width:12;stroke-linecap:butt;stroke-linejoin:round;stroke-miterlimit:4;stroke-opacity:1;stroke-dasharray:none"
             id="path4563-8-6-53-48-7" />
        </g>
        <path
           inkscape:connector-curvature="0"
           d="m 3776.6326,1853.8799 c 0,8.6736 -7.0312,15.7047 -15.7047,15.7047 -8.6669,0 -15.6982,-7.0311 -15.6982,-15.7047 0,-8.6652 7.0313,-15.698 15.6982,-15.698 8.6735,0 15.7047,7.0328 15.7047,15.698 z"
           style="fill:#130aff;fill-opacity:1;fill-rule:nonzero;stroke:none"
           id="path4573-5-31-88-88-7" />
        <g
           id="g4561-8-7-7-60-6"
           transform="matrix(1.6606426,0,0,1.6606426,3616.6889,1592.3596)">
          <path
             inkscape:connector-curvature="0"
             d="m 195.988,68.781 c 0,5.223 -4.234,9.457 -9.457,9.457 -5.219,0 -9.453,-4.234 -9.453,-9.457 0,-5.219 4.234,-9.453 9.453,-9.453 5.223,0 9.457,4.234 9.457,9.453 z"
             style="fill:#ffffff;fill-opacity:1;fill-rule:nonzero;stroke:#ffffff;stroke-width:12;stroke-linecap:butt;stroke-linejoin:round;stroke-miterlimit:4;stroke-opacity:1;stroke-dasharray:none"
             id="path4563-8-6-53-48-4" />
        </g>
        <path
           inkscape:connector-curvature="0"
           d="m 3942.2976,1705.1854 c 0,8.6736 -7.0312,15.7047 -15.7047,15.7047 -8.6668,0 -15.6981,-7.0311 -15.6981,-15.7047 0,-8.6652 7.0313,-15.698 15.6981,-15.698 8.6735,0 15.7047,7.0328 15.7047,15.698 z"
           style="fill:#130aff;fill-opacity:1;fill-rule:nonzero;stroke:none"
           id="path4573-5-31-88-88-3" />
        <g
           id="g4561-8-7-7-60-0"
           transform="matrix(1.6606426,0,0,1.6606426,3856.7011,1554.3779)">
          <path
             inkscape:connector-curvature="0"
             d="m 195.988,68.781 c 0,5.223 -4.234,9.457 -9.457,9.457 -5.219,0 -9.453,-4.234 -9.453,-9.457 0,-5.219 4.234,-9.453 9.453,-9.453 5.223,0 9.457,4.234 9.457,9.453 z"
             style="fill:#ffffff;fill-opacity:1;fill-rule:nonzero;stroke:#ffffff;stroke-width:12;stroke-linecap:butt;stroke-linejoin:round;stroke-miterlimit:4;stroke-opacity:1;stroke-dasharray:none"
             id="path4563-8-6-53-48-3" />
        </g>
        <path
           inkscape:connector-curvature="0"
           d="m 4182.3099,1667.2037 c 0,8.6736 -7.0312,15.7047 -15.7047,15.7047 -8.6669,0 -15.6982,-7.0311 -15.6982,-15.7047 0,-8.6652 7.0313,-15.698 15.6982,-15.698 8.6735,0 15.7047,7.0328 15.7047,15.698 z"
           style="fill:#130aff;fill-opacity:1;fill-rule:nonzero;stroke:none"
           id="path4573-5-31-88-88-0" />
        <path
           inkscape:connector-curvature="0"
           d="m 3133.2248,1795.472 c 0,13.1377 -10.65,23.7876 -23.7876,23.7876 -13.1275,0 -23.7777,-10.6499 -23.7777,-23.7876 0,-13.125 10.6502,-23.7774 23.7777,-23.7774 13.1376,0 23.7876,10.6524 23.7876,23.7774 z"
           style="fill:#130aff;fill-opacity:1;fill-rule:nonzero;stroke:none"
           id="path4573-5-31-88-88-7-9" />
        <path
           inkscape:connector-curvature="0"
           d="m 3003.9253,1900.5278 c 0,13.1377 -10.65,23.7876 -23.7876,23.7876 -13.1275,0 -23.7777,-10.6499 -23.7777,-23.7876 0,-13.125 10.6502,-23.7774 23.7777,-23.7774 13.1376,0 23.7876,10.6524 23.7876,23.7774 z"
           style="fill:#130aff;fill-opacity:1;fill-rule:nonzero;stroke:none"
           id="path4573-5-31-88-88-7-9-2" />
        <path
           inkscape:connector-curvature="0"
           d="m 1950.6398,1663.995 c 0,13.1377 -10.65,23.7876 -23.7876,23.7876 -13.1275,0 -23.7777,-10.6499 -23.7777,-23.7876 0,-13.125 10.6502,-23.7774 23.7777,-23.7774 13.1376,0 23.7876,10.6524 23.7876,23.7774 z"
           style="fill:#130aff;fill-opacity:1;fill-rule:nonzero;stroke:none"
           id="path4573-5-31-88-88-7-9-5" />
        <path
           inkscape:connector-curvature="0"
           d="m 1966.6398,1958.8522 c 0,13.1377 -10.65,23.7876 -23.7876,23.7876 -13.1275,0 -23.7777,-10.6499 -23.7777,-23.7876 0,-13.125 10.6502,-23.7774 23.7777,-23.7774 13.1376,0 23.7876,10.6524 23.7876,23.7774 z"
           style="fill:#130aff;fill-opacity:1;fill-rule:nonzero;stroke:none"
           id="path4573-5-31-88-88-7-9-4" />
        <path
           inkscape:connector-curvature="0"
           d="m 1710.6398,1702.8522 c 0,13.1377 -10.65,23.7876 -23.7876,23.7876 -13.1275,0 -23.7777,-10.6499 -23.7777,-23.7876 0,-13.125 10.6502,-23.7774 23.7777,-23.7774 13.1376,0 23.7876,10.6524 23.7876,23.7774 z"
           style="fill:#130aff;fill-opacity:1;fill-rule:nonzero;stroke:none"
           id="path4573-5-31-88-88-7-9-0" />
        <path
           inkscape:connector-curvature="0"
           d="m 1543.7826,1858.2808 c 0,13.1377 -10.65,23.7876 -23.7876,23.7876 -13.1275,0 -23.7777,-10.6499 -23.7777,-23.7876 0,-13.125 10.6502,-23.7774 23.7777,-23.7774 13.1376,0 23.7876,10.6524 23.7876,23.7774 z"
           style="fill:#130aff;fill-opacity:1;fill-rule:nonzero;stroke:none"
           id="path4573-5-31-88-88-7-9-59" />
      </g>
    </g>
  </g>
</svg>
