<?xml version="1.0" encoding="UTF-8" standalone="no"?>
<!-- Created with Inkscape (http://www.inkscape.org/) -->

<svg
   xmlns:ns0="http://www.iki.fi/pav/software/textext/"
   xmlns:dc="http://purl.org/dc/elements/1.1/"
   xmlns:cc="http://creativecommons.org/ns#"
   xmlns:rdf="http://www.w3.org/1999/02/22-rdf-syntax-ns#"
   xmlns:svg="http://www.w3.org/2000/svg"
   xmlns="http://www.w3.org/2000/svg"
   xmlns:xlink="http://www.w3.org/1999/xlink"
   xmlns:sodipodi="http://sodipodi.sourceforge.net/DTD/sodipodi-0.dtd"
   xmlns:inkscape="http://www.inkscape.org/namespaces/inkscape"
   id="svg3744"
   version="1.1"
   inkscape:version="0.48.4 r9939"
   width="414.56506"
   height="373.43933"
   xml:space="preserve"
   sodipodi:docname="twisting_annulus_problem.svg"><sodipodi:namedview
     pagecolor="#ffffff"
     bordercolor="#666666"
     borderopacity="1"
     objecttolerance="10"
     gridtolerance="10"
     guidetolerance="10"
     inkscape:pageopacity="0"
     inkscape:pageshadow="2"
     inkscape:window-width="1855"
     inkscape:window-height="1056"
     id="namedview3746"
     showgrid="false"
     inkscape:zoom="1.7939387"
     inkscape:cx="239.75856"
     inkscape:cy="188.09713"
     inkscape:window-x="65"
     inkscape:window-y="24"
     inkscape:window-maximized="1"
     inkscape:current-layer="g3754"
     fit-margin-top="0"
     fit-margin-left="20"
     fit-margin-right="0"
     fit-margin-bottom="0" /><metadata
     id="metadata3750"><rdf:RDF><cc:Work
         rdf:about=""><dc:format>image/svg+xml</dc:format><dc:type
           rdf:resource="http://purl.org/dc/dcmitype/StillImage" /><dc:title /></cc:Work></rdf:RDF></metadata><defs
     id="defs3748"><linearGradient
       id="linearGradient71073"><stop
         id="stop71075"
         offset="0"
         style="stop-color:#ffffff;stop-opacity:1;" /><stop
         style="stop-color:#d5d6eb;stop-opacity:0.8392157;"
         offset="0.84574509"
         id="stop71077" /><stop
         id="stop71079"
         offset="0.87824446"
         style="stop-color:#b7badc;stop-opacity:0.75686275;" /><stop
         style="stop-color:#ffffff;stop-opacity:1;"
         offset="1"
         id="stop71081" /></linearGradient><linearGradient
       id="linearGradient71033"><stop
         style="stop-color:#ffffff;stop-opacity:1;"
         offset="0"
         id="stop71041" /><stop
         id="stop71069"
         offset="0.77715725"
         style="stop-color:#ffffff;stop-opacity:0.8392157;" /><stop
         style="stop-color:#b7badc;stop-opacity:0.75686275;"
         offset="0.9557724"
         id="stop71071" /><stop
         id="stop71037"
         offset="1"
         style="stop-color:#ffffff;stop-opacity:1;" /></linearGradient><radialGradient
       gradientUnits="userSpaceOnUse"
       r="85.763565"
       fy="375.70959"
       fx="332.22986"
       cy="375.70959"
       cx="332.22986"
       id="radialGradient71039"
       xlink:href="#linearGradient71033"
       inkscape:collect="always" /><radialGradient
       gradientTransform="matrix(0.93034611,-0.36668259,0.36757537,0.93261127,-114.96049,147.1415)"
       gradientUnits="userSpaceOnUse"
       r="84.729759"
       fy="375.70959"
       fx="332.22986"
       cy="375.70959"
       cx="332.22986"
       id="radialGradient71067"
       xlink:href="#linearGradient71073"
       inkscape:collect="always" /></defs><g
     transform="matrix(1.25,0,0,-1.25,-166.48144,1012.2283)"
     inkscape:label="annulus_meshes"
     inkscape:groupmode="layer"
     id="g3752"><g
       id="g3754"><path
         transform="matrix(1.7629666,0,0,-1.7629666,-287.14926,1322.7704)"
         d="m 416.95962,375.70959 c 0,46.79496 -37.93481,84.72976 -84.72976,84.72976 -46.79496,0 -84.72976,-37.9348 -84.72976,-84.72976 0,-46.79495 37.9348,-84.72975 84.72976,-84.72975 46.79495,0 84.72976,37.9348 84.72976,84.72975 z"
         sodipodi:ry="84.729759"
         sodipodi:rx="84.729759"
         sodipodi:cy="375.70959"
         sodipodi:cx="332.22986"
         id="path41711-3-6"
         style="fill:url(#radialGradient71067);fill-opacity:1;stroke:none"
         sodipodi:type="arc" /><path
         transform="matrix(1.5456002,0,0,-1.5456002,-215.35329,1241.4605)"
         d="m 416.95962,375.70959 c 0,46.79496 -37.93481,84.72976 -84.72976,84.72976 -46.79496,0 -84.72976,-37.9348 -84.72976,-84.72976 0,-46.79495 37.9348,-84.72975 84.72976,-84.72975 46.79495,0 84.72976,37.9348 84.72976,84.72975 z"
         sodipodi:ry="84.729759"
         sodipodi:rx="84.729759"
         sodipodi:cy="375.70959"
         sodipodi:cx="332.22986"
         id="path41711-3"
         style="fill:#e7e7e7;fill-opacity:0.78431373;stroke:#000000;stroke-width:1.03519654;stroke-miterlimit:4;stroke-opacity:1;stroke-dasharray:none"
         sodipodi:type="arc" /><path
         transform="matrix(0.77383859,0,0,-0.77383859,41.796244,951.17387)"
         d="m 416.95962,375.70959 c 0,46.79496 -37.93481,84.72976 -84.72976,84.72976 -46.79496,0 -84.72976,-37.9348 -84.72976,-84.72976 0,-46.79495 37.9348,-84.72975 84.72976,-84.72975 46.79495,0 84.72976,37.9348 84.72976,84.72975 z"
         sodipodi:ry="84.729759"
         sodipodi:rx="84.729759"
         sodipodi:cy="375.70959"
         sodipodi:cx="332.22986"
         id="path41711"
         style="fill:url(#radialGradient71039);fill-opacity:1;stroke:#000000;stroke-width:2.06761456;stroke-miterlimit:4;stroke-opacity:1;stroke-dasharray:none"
         sodipodi:type="arc" /><path
         style="fill:none;stroke:#000000;stroke-width:1.50404561;stroke-linecap:butt;stroke-linejoin:miter;stroke-miterlimit:4;stroke-opacity:1;stroke-dasharray:none"
         d="m 392.94059,660.49571 -94.00285,0 0,90.7799"
         id="path3822"
         inkscape:connector-curvature="0"
         inkscape:export-filename="/home/bdgiffin/Desktop/doc/plate_with_hole.png"
         inkscape:export-xdpi="128"
         inkscape:export-ydpi="128" /><path
         style="fill:none;stroke:#000000;stroke-width:1.50404561;stroke-linecap:butt;stroke-linejoin:miter;stroke-miterlimit:4;stroke-opacity:1;stroke-dasharray:none"
         d="m 299.4749,661.57003 73.5908,52.10444"
         id="path3824"
         inkscape:connector-curvature="0"
         sodipodi:nodetypes="cc"
         inkscape:export-filename="/home/bdgiffin/Desktop/doc/plate_with_hole.png"
         inkscape:export-xdpi="128"
         inkscape:export-ydpi="128" /><path
         style="fill:#000000;fill-opacity:1;stroke:#000000;stroke-width:0.7520228px;stroke-linecap:butt;stroke-linejoin:miter;stroke-opacity:1"
         d="m 394.28349,660.49571 -11.53798,5.18428 0,-10.82444 z"
         id="path3826"
         inkscape:connector-curvature="0"
         sodipodi:nodetypes="cccc"
         inkscape:export-filename="/home/bdgiffin/Desktop/doc/plate_with_hole.png"
         inkscape:export-xdpi="128"
         inkscape:export-ydpi="128" /><path
         style="fill:#000000;fill-opacity:1;stroke:#000000;stroke-width:0.7520228px;stroke-linecap:butt;stroke-linejoin:miter;stroke-opacity:1"
         d="m 299.22384,757.25578 5.18427,-11.53799 -10.82444,0 z"
         id="path3826-3"
         inkscape:connector-curvature="0"
         sodipodi:nodetypes="cccc"
         inkscape:export-filename="/home/bdgiffin/Desktop/doc/plate_with_hole.png"
         inkscape:export-xdpi="128"
         inkscape:export-ydpi="128" /><path
         style="fill:#000000;fill-opacity:1;stroke:#000000;stroke-width:0.7520228px;stroke-linecap:butt;stroke-linejoin:miter;stroke-opacity:1"
         d="m 375.57454,715.73725 -6.20371,-11.02342 -6.42872,8.70864 z"
         id="path3826-3-5"
         inkscape:connector-curvature="0"
         sodipodi:nodetypes="cccc"
         inkscape:export-filename="/home/bdgiffin/Desktop/doc/plate_with_hole.png"
         inkscape:export-xdpi="128"
         inkscape:export-ydpi="128" /><path
         style="fill:none;stroke:#000000;stroke-width:1.50404561;stroke-linecap:butt;stroke-linejoin:miter;stroke-miterlimit:4;stroke-opacity:1;stroke-dasharray:none"
         d="m 327.23846,662.16286 c 0,0 0.38405,4.35323 -0.6043,7.58737 -1.13219,3.70477 -3.55868,6.78164 -3.55868,6.78164"
         id="path3868"
         inkscape:connector-curvature="0"
         sodipodi:nodetypes="csc"
         inkscape:export-filename="/home/bdgiffin/Desktop/doc/plate_with_hole.png"
         inkscape:export-xdpi="128"
         inkscape:export-ydpi="128" /><g
         style="font-style:normal;font-variant:normal;font-weight:normal;font-stretch:normal;letter-spacing:normal;word-spacing:normal;text-anchor:start;fill:none;stroke:#000000;stroke-linecap:butt;stroke-linejoin:miter;stroke-miterlimit:10.43299961;stroke-opacity:1;stroke-dasharray:none;stroke-dashoffset:0"
         id="content"
         transform="matrix(2.5134212,0,0,2.5134212,-167.59844,-999.2944)"
         xml:space="preserve"
         stroke-miterlimit="10.433"
         font-style="normal"
         font-variant="normal"
         font-weight="normal"
         font-stretch="normal"
         font-size-adjust="none"
         letter-spacing="normal"
         word-spacing="normal"
         ns0:text="$X_1$"
         ns0:preamble=""><path
           style="fill:#000000;stroke-width:0"
           inkscape:connector-curvature="0"
           d="m 228.26,661.32 -0.84,1.97 c -0.03,0.08 -0.05,0.12 -0.05,0.13 0,0.06 0.17,0.25 0.59,0.29 0.1,0.01 0.2,0.02 0.2,0.19 0,0.12 -0.12,0.12 -0.15,0.12 -0.41,0 -0.84,-0.03 -1.25,-0.03 -0.25,0 -0.87,0.03 -1.12,0.03 -0.06,0 -0.18,0 -0.18,-0.2 0,-0.11 0.1,-0.11 0.23,-0.11 0.6,0 0.66,-0.1 0.75,-0.32 l 1.17,-2.77 -2.1,-2.25 -0.13,-0.11 c -0.48,-0.53 -0.95,-0.69 -1.46,-0.72 -0.13,-0.01 -0.22,-0.01 -0.22,-0.2 0,-0.01 0,-0.11 0.13,-0.11 0.3,0 0.63,0.04 0.93,0.04 0.37,0 0.76,-0.04 1.12,-0.04 0.06,0 0.18,0 0.18,0.2 0,0.1 -0.1,0.11 -0.12,0.11 -0.09,0.01 -0.4,0.03 -0.4,0.31 0,0.16 0.15,0.32 0.27,0.45 l 1.01,1.07 0.9,0.97 1.01,-2.37 c 0.03,-0.11 0.04,-0.12 0.04,-0.14 0,-0.08 -0.18,-0.25 -0.57,-0.29 -0.11,-0.01 -0.2,-0.02 -0.2,-0.19 0,-0.12 0.11,-0.12 0.15,-0.12 0.28,0 0.97,0.04 1.25,0.04 0.25,0 0.86,-0.04 1.11,-0.04 0.07,0 0.19,0 0.19,0.19 0,0.12 -0.1,0.12 -0.18,0.12 -0.67,0.01 -0.69,0.04 -0.86,0.44 -0.39,0.92 -1.05,2.47 -1.28,3.07 0.67,0.69 1.72,1.88 2.04,2.16 0.29,0.23 0.66,0.47 1.26,0.5 0.13,0.01 0.22,0.01 0.22,0.2 0,0.01 0,0.11 -0.13,0.11 -0.3,0 -0.63,-0.03 -0.94,-0.03 -0.36,0 -0.74,0.03 -1.1,0.03 -0.06,0 -0.19,0 -0.19,-0.2 0,-0.07 0.05,-0.1 0.12,-0.11 0.09,-0.01 0.4,-0.03 0.4,-0.31 0,-0.13 -0.11,-0.26 -0.19,-0.35 z"
           id="path3122" /><path
           style="fill:#000000;stroke-width:0"
           inkscape:connector-curvature="0"
           d="m 234.02,660.16 0,0.01 0,0.01 0,0.01 0,0.01 0,0 0,0.01 0,0.01 0,0.01 0,0 0,0.01 0,0.01 0,0 0,0.01 0,0 -0.01,0.01 0,0 0,0.01 0,0 0,0.01 0,0.01 -0.01,0.01 0,0 0,0.01 -0.01,0.01 0,0 -0.01,0.01 0,0 -0.01,0 -0.01,0.01 -0.01,0 -0.01,0 0,0 -0.01,0 -0.01,0 0,0 -0.01,0.01 0,0 -0.01,0 0,0 -0.01,0 -0.01,0 -0.01,0 0,0 -0.01,0 -0.01,0 -0.01,0 0,0 -0.01,0 -0.01,0 -0.01,0 c -0.44,-0.44 -1.08,-0.45 -1.36,-0.45 v -0.25 c 0.16,0 0.62,0 1.01,0.2 v -3.55 c 0,-0.23 0,-0.32 -0.7,-0.32 h -0.27 v -0.25 c 0.13,0.01 0.99,0.03 1.24,0.03 0.22,0 1.1,-0.02 1.25,-0.03 v 0.25 h -0.26 c -0.7,0 -0.7,0.09 -0.7,0.32 z"
           id="path3124" /></g><g
         style="font-style:normal;font-variant:normal;font-weight:normal;font-stretch:normal;letter-spacing:normal;word-spacing:normal;text-anchor:start;fill:none;stroke:#000000;stroke-linecap:butt;stroke-linejoin:miter;stroke-miterlimit:10.43299961;stroke-opacity:1;stroke-dasharray:none;stroke-dashoffset:0"
         ns0:preamble=""
         ns0:text="$X_2$"
         word-spacing="normal"
         letter-spacing="normal"
         font-size-adjust="none"
         font-stretch="normal"
         font-weight="normal"
         font-variant="normal"
         font-style="normal"
         stroke-miterlimit="10.433"
         xml:space="preserve"
         transform="matrix(2.5134212,0,0,2.5134212,-272.83159,-889.12569)"
         id="g3308"><path
           style="fill:#000000;stroke-width:0"
           inkscape:connector-curvature="0"
           id="path3310"
           d="m 228.26,661.32 -0.84,1.97 c -0.03,0.08 -0.05,0.12 -0.05,0.13 0,0.06 0.17,0.25 0.59,0.29 0.1,0.01 0.2,0.02 0.2,0.19 0,0.12 -0.12,0.12 -0.15,0.12 -0.41,0 -0.84,-0.03 -1.25,-0.03 -0.25,0 -0.87,0.03 -1.12,0.03 -0.06,0 -0.18,0 -0.18,-0.2 0,-0.11 0.1,-0.11 0.23,-0.11 0.6,0 0.66,-0.1 0.75,-0.32 l 1.17,-2.77 -2.1,-2.25 -0.13,-0.11 c -0.48,-0.53 -0.95,-0.69 -1.46,-0.72 -0.13,-0.01 -0.22,-0.01 -0.22,-0.2 0,-0.01 0,-0.11 0.13,-0.11 0.3,0 0.63,0.04 0.93,0.04 0.37,0 0.76,-0.04 1.12,-0.04 0.06,0 0.18,0 0.18,0.2 0,0.1 -0.1,0.11 -0.12,0.11 -0.09,0.01 -0.4,0.03 -0.4,0.31 0,0.16 0.15,0.32 0.27,0.45 l 1.01,1.07 0.9,0.97 1.01,-2.37 c 0.03,-0.11 0.04,-0.12 0.04,-0.14 0,-0.08 -0.18,-0.25 -0.57,-0.29 -0.11,-0.01 -0.2,-0.02 -0.2,-0.19 0,-0.12 0.11,-0.12 0.15,-0.12 0.28,0 0.97,0.04 1.25,0.04 0.25,0 0.86,-0.04 1.11,-0.04 0.07,0 0.19,0 0.19,0.19 0,0.12 -0.1,0.12 -0.18,0.12 -0.67,0.01 -0.69,0.04 -0.86,0.44 -0.39,0.92 -1.05,2.47 -1.28,3.07 0.67,0.69 1.72,1.88 2.04,2.16 0.29,0.23 0.66,0.47 1.26,0.5 0.13,0.01 0.22,0.01 0.22,0.2 0,0.01 0,0.11 -0.13,0.11 -0.3,0 -0.63,-0.03 -0.94,-0.03 -0.36,0 -0.74,0.03 -1.1,0.03 -0.06,0 -0.19,0 -0.19,-0.2 0,-0.07 0.05,-0.1 0.12,-0.11 0.09,-0.01 0.4,-0.03 0.4,-0.31 0,-0.13 -0.11,-0.26 -0.19,-0.35 z" /><path
           style="fill:#000000;stroke-width:0"
           inkscape:connector-curvature="0"
           id="path3312"
           d="m 235.2,657.01 h -0.23 c -0.02,-0.16 -0.09,-0.57 -0.18,-0.64 -0.06,-0.04 -0.6,-0.04 -0.69,-0.04 h -1.29 c 0.74,0.65 0.98,0.84 1.4,1.17 0.51,0.41 0.99,0.84 0.99,1.5 0,0.84 -0.74,1.36 -1.63,1.36 -0.86,0 -1.45,-0.61 -1.45,-1.25 0,-0.35 0.3,-0.39 0.37,-0.39 0.17,0 0.37,0.12 0.37,0.37 0,0.13 -0.05,0.37 -0.41,0.37 0.22,0.5 0.69,0.65 1.02,0.65 0.69,0 1.06,-0.54 1.06,-1.11 0,-0.6 -0.43,-1.08 -0.66,-1.33 l -1.68,-1.66 c -0.07,-0.06 -0.07,-0.07 -0.07,-0.27 h 2.87 z" /></g><g
         id="g3486"
         transform="matrix(2.5134212,0,0,2.5134212,-182.34988,-937.80314)"
         xml:space="preserve"
         stroke-miterlimit="10.433"
         font-style="normal"
         font-variant="normal"
         font-weight="normal"
         font-stretch="normal"
         font-size-adjust="none"
         letter-spacing="normal"
         word-spacing="normal"
         ns0:text="$r$"
         ns0:preamble=""
         style="font-style:normal;font-variant:normal;font-weight:normal;font-stretch:normal;letter-spacing:normal;word-spacing:normal;text-anchor:start;fill:none;stroke:#000000;stroke-linecap:butt;stroke-linejoin:miter;stroke-miterlimit:10.43299961;stroke-opacity:1;stroke-dasharray:none;stroke-dashoffset:0"><path
           style="fill:#000000;stroke-width:0"
           inkscape:connector-curvature="0"
           d="m 224.31,657.82 0,-0.01 -0.01,-0.02 0,-0.01 0,-0.02 -0.01,-0.03 -0.01,-0.03 -0.01,-0.03 0,-0.04 -0.01,-0.03 -0.01,-0.03 0,-0.01 -0.01,-0.02 0,-0.01 0,-0.02 0,-0.01 -0.01,-0.01 0,-0.02 0,-0.01 0,-0.01 -0.01,-0.01 0,-0.01 0,-0.01 0,-0.01 0,0 0,-0.01 0,-0.01 c 0,-0.17 0.14,-0.26 0.29,-0.26 0.12,0 0.29,0.08 0.37,0.27 0.02,0.04 0.35,1.39 0.39,1.57 0.08,0.33 0.26,1.03 0.32,1.3 0.04,0.12 0.32,0.59 0.56,0.81 0.08,0.07 0.37,0.33 0.79,0.33 0.26,0 0.41,-0.12 0.42,-0.12 -0.3,-0.05 -0.51,-0.29 -0.51,-0.55 0,-0.16 0.1,-0.35 0.37,-0.35 0.27,0 0.55,0.23 0.55,0.59 0,0.35 -0.32,0.65 -0.83,0.65 -0.64,0 -1.08,-0.49 -1.27,-0.77 -0.08,0.45 -0.44,0.77 -0.91,0.77 -0.45,0 -0.64,-0.39 -0.73,-0.57 -0.18,-0.34 -0.31,-0.93 -0.31,-0.96 0,-0.1 0.1,-0.1 0.12,-0.1 0.1,0 0.11,0.01 0.17,0.22 0.17,0.71 0.37,1.19 0.73,1.19 0.16,0 0.3,-0.08 0.3,-0.46 0,-0.21 -0.03,-0.32 -0.16,-0.83 z"
           id="path3488" /></g><g
         id="g3797"
         transform="matrix(2.5134212,0,0,2.5134212,-228.57511,-986.80228)"
         xml:space="preserve"
         stroke-miterlimit="10.433"
         font-style="normal"
         font-variant="normal"
         font-weight="normal"
         font-stretch="normal"
         font-size-adjust="none"
         letter-spacing="normal"
         word-spacing="normal"
         ns0:text="$\\theta$"
         ns0:preamble=""
         style="font-style:normal;font-variant:normal;font-weight:normal;font-stretch:normal;letter-spacing:normal;word-spacing:normal;text-anchor:start;fill:none;stroke:#000000;stroke-linecap:butt;stroke-linejoin:miter;stroke-miterlimit:10.43299961;stroke-opacity:1;stroke-dasharray:none;stroke-dashoffset:0"><path
           style="fill:#000000;stroke-width:0"
           inkscape:connector-curvature="0"
           d="m 227.96,662.2 0,0.07 0,0.06 -0.01,0.07 0,0.08 -0.01,0.07 0,0.08 -0.01,0.08 -0.01,0.09 -0.02,0.08 -0.01,0.08 -0.02,0.09 -0.02,0.08 -0.02,0.09 -0.03,0.08 -0.03,0.09 -0.03,0.08 -0.03,0.08 -0.04,0.07 -0.04,0.08 -0.04,0.07 -0.05,0.06 -0.05,0.07 -0.05,0.06 -0.06,0.05 -0.06,0.05 -0.03,0.02 -0.04,0.03 -0.03,0.02 -0.04,0.01 -0.03,0.02 -0.04,0.02 -0.04,0.01 -0.04,0.01 -0.04,0.01 -0.04,0.01 -0.05,0.01 -0.04,0 -0.05,0.01 -0.05,0 0,-0.22 c 0.48,0 0.54,-0.64 0.54,-1.2 0,-0.49 -0.08,-1 -0.32,-1.98 h -2.08 c 0.17,0.64 0.37,1.43 0.77,2.14 0.27,0.48 0.64,1.04 1.09,1.04 l 0,0.22 c -1.38,0 -2.91,-2.8 -2.91,-5.08 0,-0.93 0.29,-2.03 1.19,-2.03 v 0.21 c -0.33,0 -0.53,0.29 -0.53,1.22 0,0.41 0.06,0.99 0.31,1.96 h 2.07 c -0.1,-0.45 -0.31,-1.3 -0.69,-2.01 -0.35,-0.68 -0.73,-1.17 -1.16,-1.17 v -0.21 c 1.41,0 2.92,2.85 2.92,5.07 z"
           id="path3799" /></g><path
         sodipodi:nodetypes="cc"
         transform="matrix(0.8,0,0,-0.8,0,828.56784)"
         inkscape:connector-curvature="0"
         id="path71083"
         d="m 556.59649,212.38183 c -0.55744,-23.69088 0.55743,-52.9561 -24.80575,-91.69767"
         style="fill:none;stroke:#000000;stroke-width:2;stroke-linecap:butt;stroke-linejoin:miter;stroke-miterlimit:4;stroke-opacity:1;stroke-dasharray:none" /><path
         style="fill:#000000;fill-opacity:1;stroke:#000000;stroke-width:0.7520228px;stroke-linecap:butt;stroke-linejoin:miter;stroke-opacity:1"
         d="m 424.84498,734.05566 10.08764,-7.63162 -9.49501,-5.19746 z"
         id="path3826-3-5-7"
         inkscape:connector-curvature="0"
         sodipodi:nodetypes="cccc"
         inkscape:export-filename="/home/bdgiffin/Desktop/doc/plate_with_hole.png"
         inkscape:export-xdpi="128"
         inkscape:export-ydpi="128" /><g
         style="font-style:normal;font-variant:normal;font-weight:normal;font-stretch:normal;letter-spacing:normal;word-spacing:normal;text-anchor:start;fill:none;stroke:#000000;stroke-linecap:butt;stroke-linejoin:miter;stroke-miterlimit:10.43299961;stroke-opacity:1;stroke-dasharray:none;stroke-dashoffset:0"
         ns0:preamble="/home/bdgiffin/thesis/figures/preamble.tex"
         ns0:text="$\\Phi$"
         word-spacing="normal"
         letter-spacing="normal"
         font-size-adjust="none"
         font-stretch="normal"
         font-weight="normal"
         font-variant="normal"
         font-style="normal"
         stroke-miterlimit="10.433"
         xml:space="preserve"
         transform="matrix(2.5134212,0,0,2.5134212,-113.37534,-959.10649)"
         id="g71348"><path
           id="path71350"
           d="m 227.4,658.58 v 0.21 3.67 c 1.37,-0.16 1.65,-1.07 1.65,-1.83 0,-0.59 -0.15,-1.66 -1.65,-1.84 v -0.21 c 1.54,0.12 2.65,1.04 2.65,2.04 0,1.04 -1.14,1.94 -2.65,2.06 v 0.55 c 0,0.34 0,0.48 0.95,0.48 h 0.33 v 0.31 c -0.36,-0.03 -1.28,-0.03 -1.69,-0.03 -0.4,0 -1.33,0 -1.69,0.03 v -0.31 h 0.33 c 0.95,0 0.95,-0.13 0.95,-0.48 v -0.55 -0.23 -3.65 c -1.42,0.19 -1.6,1.21 -1.6,1.82 0,0.52 0.1,1.63 1.6,1.83 v 0.23 c -1.53,-0.15 -2.59,-1.06 -2.59,-2.05 0,-1.02 1.1,-1.91 2.59,-2.05 v -0.56 c 0,-0.34 0,-0.48 -0.95,-0.48 h -0.33 v -0.31 c 0.36,0.04 1.28,0.04 1.68,0.04 0.41,0 1.34,0 1.7,-0.04 v 0.31 h -0.33 c -0.95,0 -0.95,0.13 -0.95,0.48 z"
           inkscape:connector-curvature="0"
           style="fill:#000000;stroke-width:0" /></g></g></g></svg>